<svg width="20" height="20" viewBox="0 0 20 20" fill="none" xmlns="http://www.w3.org/2000/svg">
<g id="vuesax/linear/facebook">
<g id="vuesax/linear/facebook_2">
<g id="facebook">
<path id="Vector" d="M11.6667 7.75V10.1667H13.8333C14 10.1667 14.0833 10.3333 14.0833 10.5L13.75 12.0833C13.75 12.1667 13.5833 12.25 13.5 12.25H11.6667V18.3333H9.16667V12.3333H7.75C7.58333 12.3333 7.5 12.25 7.5 12.0833V10.5C7.5 10.3333 7.58333 10.25 7.75 10.25H9.16667V7.5C9.16667 6.08333 10.25 5 11.6667 5H13.9167C14.0833 5 14.1667 5.08333 14.1667 5.25V7.25C14.1667 7.41667 14.0833 7.5 13.9167 7.5H11.9167C11.75 7.5 11.6667 7.58333 11.6667 7.75Z" stroke="black" stroke-width="1.25" stroke-miterlimit="10" stroke-linecap="round"/>
<path id="Vector_2" d="M12.5 18.3333H7.49996C3.33329 18.3333 1.66663 16.6667 1.66663 12.5V7.5C1.66663 3.33334 3.33329 1.66667 7.49996 1.66667H12.5C16.6666 1.66667 18.3333 3.33334 18.3333 7.5V12.5C18.3333 16.6667 16.6666 18.3333 12.5 18.3333Z" stroke="black" stroke-width="1.25" stroke-linecap="round" stroke-linejoin="round"/>
</g>
</g>
</g>
</svg>
